<?xml version="1.0" encoding="UTF-8" standalone="no"?>
<!-- Created with Inkscape (http://www.inkscape.org/) -->

<svg
   width="209.86487mm"
   height="175.06647mm"
   viewBox="0 0 209.86487 175.06647"
   version="1.1"
   id="svg1"
   xml:space="preserve"
   inkscape:version="1.4.2 (f4327f4, 2025-05-13)"
   sodipodi:docname="book.svg"
   xmlns:inkscape="http://www.inkscape.org/namespaces/inkscape"
   xmlns:sodipodi="http://sodipodi.sourceforge.net/DTD/sodipodi-0.dtd"
   xmlns="http://www.w3.org/2000/svg"
   xmlns:svg="http://www.w3.org/2000/svg"><sodipodi:namedview
     id="namedview1"
     pagecolor="#ffffff"
     bordercolor="#000000"
     borderopacity="0.25"
     inkscape:showpageshadow="2"
     inkscape:pageopacity="0.0"
     inkscape:pagecheckerboard="0"
     inkscape:deskcolor="#d1d1d1"
     inkscape:document-units="mm"
     inkscape:zoom="0.73584456"
     inkscape:cx="680.17083"
     inkscape:cy="410.41277"
     inkscape:window-width="1920"
     inkscape:window-height="1028"
     inkscape:window-x="-7"
     inkscape:window-y="-7"
     inkscape:window-maximized="1"
     inkscape:current-layer="layer1" /><defs
     id="defs1" /><g
     inkscape:label="Layer 1"
     inkscape:groupmode="layer"
     id="layer1"
     transform="translate(33.526044,-25.803046)"><path
       style="fill:#f9f9f9;stroke:#000000;stroke-width:2.21784"
       d="m 71.45408,48.977467 c 0,0 -25.188304,-23.667871 -44.835182,-21.977314 -19.646878,1.690565 -50.880377,5.635203 -55.414271,11.270424 -4.533902,5.635203 -3.526355,159.476413 -3.526355,159.476413 0,0 7.55648,-5.0717 20.654401,-10.14339 13.0979214,-5.07169 22.165718,-9.57985 37.782456,-6.76226 15.616753,2.81763 35.767393,15.77859 44.33142,18.59621 8.564019,2.8176 12.594152,-12.96099 25.188304,-14.08804 12.594147,-1.12704 19.646877,-10.14336 32.744797,-5.07167 13.09792,5.07167 46.85025,16.90561 46.85025,16.90561 V 50.104499 l -10.07532,-9.57985 -26.69961,-11.270415 c 0,0 -6.04519,-3.381122 -23.677,1.12705 -17.631817,4.508162 -36.774925,12.960989 -43.32389,18.596183 z"
       id="path1" /><path
       style="fill:#f9f9f9;stroke:#000000;stroke-width:2.21784"
       d="m 69.439018,46.723377 1.5113,153.841203"
       id="path2" /></g></svg>
