<?xml version="1.0" encoding="UTF-8" standalone="no"?>
<!-- Created with Inkscape (http://www.inkscape.org/) -->

<svg
   width="153.45679mm"
   height="130.83794mm"
   viewBox="0 0 153.45679 130.83794"
   version="1.1"
   id="svg1"
   xml:space="preserve"
   inkscape:version="1.4.2 (f4327f4, 2025-05-13)"
   sodipodi:docname="chair.svg"
   xmlns:inkscape="http://www.inkscape.org/namespaces/inkscape"
   xmlns:sodipodi="http://sodipodi.sourceforge.net/DTD/sodipodi-0.dtd"
   xmlns="http://www.w3.org/2000/svg"
   xmlns:svg="http://www.w3.org/2000/svg"><sodipodi:namedview
     id="namedview1"
     pagecolor="#ffffff"
     bordercolor="#000000"
     borderopacity="0.25"
     inkscape:showpageshadow="2"
     inkscape:pageopacity="0.0"
     inkscape:pagecheckerboard="0"
     inkscape:deskcolor="#d1d1d1"
     inkscape:document-units="mm"
     inkscape:zoom="0.52032068"
     inkscape:cx="350.74524"
     inkscape:cy="334.40916"
     inkscape:window-width="1920"
     inkscape:window-height="1028"
     inkscape:window-x="-7"
     inkscape:window-y="-7"
     inkscape:window-maximized="1"
     inkscape:current-layer="layer1" /><defs
     id="defs1" /><g
     inkscape:label="Layer 1"
     inkscape:groupmode="layer"
     id="layer1"
     transform="translate(-22.83831,-75.492299)"><path
       style="fill:#f9f9f9;stroke:#000000;stroke-width:1.82506"
       d="M 45.762917,118.57073 45.142865,89.117898 c 0,0 -1.860182,-11.47105 11.471077,-11.47105 13.331259,0 72.856898,-1.24011 72.856898,-1.24011 0,0 22.94217,4.65042 25.4224,17.05159 2.48024,12.401172 1.24012,25.732452 1.24012,25.732452 v 30.69293 l -101.069561,2.7902 -10.23098,1.24017 z"
       id="path1" /><path
       style="fill:#f9f9f9;stroke:#000000;stroke-width:1.82506"
       d="M 53.203624,152.36391 54.753766,132.212 c 0,0 -0.93007,-5.27047 -6.200577,-7.44069 -5.270499,-2.17021 -11.781116,-8.99085 -17.981707,-3.72038 -6.200577,5.27048 -6.820642,19.22181 -6.820642,29.45283 0,10.23095 0,30.07281 0,30.07281 0,0 0.620051,8.06074 7.130682,10.85107 6.510617,2.7902 16.431558,3.10026 16.431558,3.10026 l 101.68961,0.62012 7.75073,-0.30972 c 0,0 1.24012,2.17015 8.68083,-3.72037 7.4407,-5.8906 8.06076,-3.41032 9.30088,-18.29176 1.24012,-14.88138 0.31006,-43.09403 0.31006,-43.09403 0,0 -4.96047,-9.30091 -11.16106,-9.6109 -6.20059,-0.31041 -9.92094,-2.17022 -15.19144,4.03037 -5.2705,6.20058 -4.96047,13.95133 -5.2705,18.91174 -0.31006,4.96048 -1.55015,9.6109 -1.55015,9.6109 z"
       id="path2" /><path
       style="fill:#f9f9f9;stroke:#000000;stroke-width:1.82506"
       d="m 45.762917,192.97774 -0.309992,13.33128"
       id="path3" /><path
       style="fill:#f9f9f9;stroke:#000000;stroke-width:1.82506"
       d="m 151.1729,194.5279 0.93008,10.851"
       id="path4" /></g></svg>
