<?xml version="1.0" encoding="UTF-8" standalone="no"?>
<!-- Created with Inkscape (http://www.inkscape.org/) -->

<svg
   width="221.33258mm"
   height="137.80615mm"
   viewBox="0 0 221.33258 137.80615"
   version="1.1"
   id="svg1"
   xml:space="preserve"
   inkscape:version="1.4.2 (f4327f4, 2025-05-13)"
   sodipodi:docname="game.svg"
   xmlns:inkscape="http://www.inkscape.org/namespaces/inkscape"
   xmlns:sodipodi="http://sodipodi.sourceforge.net/DTD/sodipodi-0.dtd"
   xmlns="http://www.w3.org/2000/svg"
   xmlns:svg="http://www.w3.org/2000/svg"><sodipodi:namedview
     id="namedview1"
     pagecolor="#ffffff"
     bordercolor="#000000"
     borderopacity="0.25"
     inkscape:showpageshadow="2"
     inkscape:pageopacity="0.0"
     inkscape:pagecheckerboard="0"
     inkscape:deskcolor="#d1d1d1"
     inkscape:document-units="mm"
     inkscape:zoom="0.37"
     inkscape:cx="-9.4594595"
     inkscape:cy="78.378378"
     inkscape:window-width="1920"
     inkscape:window-height="1028"
     inkscape:window-x="-7"
     inkscape:window-y="-7"
     inkscape:window-maximized="1"
     inkscape:current-layer="layer1" /><defs
     id="defs1" /><g
     inkscape:label="Layer 1"
     inkscape:groupmode="layer"
     id="layer1"
     transform="translate(0.19097826,-87.421562)"><path
       style="fill:#f9f9f9;fill-opacity:1;stroke:#000000;stroke-width:1.83996"
       d="M 0.74684411,165.4997 17.101843,109.36235 c 0,0 4.862298,-15.912939 18.123101,-19.449144 13.260733,-3.536204 139.238146,0 139.238146,0 0,0 22.10132,8.840524 26.0796,19.007124 3.97821,10.1666 17.23902,64.53579 17.23902,64.53579 0,0 7.95642,9.7246 -4.8623,26.96362 -12.8188,17.23901 -17.23902,30.05774 -36.24614,20.77522 -19.00712,-9.28259 -34.47803,-24.75351 -36.24613,-34.47803 -1.7681,-9.7246 -58.789457,-10.60862 -58.789457,-10.60862 l -7.514487,19.00712 c 0,0 -6.630401,11.49263 -19.449126,18.12303 -12.818725,6.6304 -16.354999,9.28259 -27.84763,6.18839 C 15.33374,216.33266 8.2613311,217.21667 4.2831181,203.07185 0.30483511,188.92704 0.74684411,165.4997 0.74684411,165.4997 Z"
       id="path1" /><path
       style="fill:#f9f9f9;fill-opacity:0.630522;stroke:#000000;stroke-width:1.83996"
       d="m 56.221168,127.1539 0.221143,31.7154"
       id="path2" /><path
       style="fill:#f9f9f9;fill-opacity:0.630522;stroke:#000000;stroke-width:1.83996"
       d="m 35.55645,144.61393 40.887428,-0.22101"
       id="path3" /><circle
       style="fill:#fefefe;fill-opacity:1;stroke:#000000;stroke-width:1.83996"
       id="path4"
       cx="165.01474"
       cy="132.40295"
       r="8.7852669" /><circle
       style="fill:#f9f9f9;fill-opacity:1;stroke:#000000;stroke-width:1.83996"
       id="path4-7"
       cx="165.44789"
       cy="164.83311"
       r="8.7852669" /><circle
       style="fill:#f9f9f9;fill-opacity:1;stroke:#000000;stroke-width:1.83996"
       id="path4-7-3"
       cx="183.74796"
       cy="147.48419"
       r="8.7852669" /><circle
       style="fill:#f9f9f9;fill-opacity:1;stroke:#000000;stroke-width:1.83996"
       id="path4-7-7"
       cx="146.33035"
       cy="146.93707"
       r="8.7852669" /></g></svg>
